<?xml version="1.0" encoding="UTF-8"?>
<svg data-v-7d1f2956="" version="1.0" xmlns="http://www.w3.org/2000/svg" xmlns:xlink="http://www.w3.org/1999/xlink" width="100%" height="100%" viewBox="0 0 340.000000 250.000000" preserveAspectRatio="xMidYMid meet" color-interpolation-filters="sRGB" class="el-tooltip" style="margin: auto;"><rect data-v-7d1f2956="" x="0" y="0" width="100%" height="100%" fill="#fff" fill-opacity="1"></rect> <rect data-v-7d1f2956="" x="0" y="0" width="100%" height="100%" fill="url(#watermark)" fill-opacity="1" class="watermarklayer"></rect> <g data-v-7d1f2956="" fill="#65b888" class="icon-text-wrapper icon-svg-group iconsvg" transform="translate(64.8015365600586,95)"><g fill="#65b888" class="iconsvg-imagesvg" transform="translate(0,0)"><rect fill="#65b888" fill-opacity="0" stroke-width="2" x="0" y="0" width="60" height="60" class="image-rect"></rect> <svg viewBox="0 0 60 60" x="0" y="0" width="60" height="60" hollow-target="iconBnFill" class="image-svg-svg" mask="url(#af14e781-e8df-4306-ab86-aad536feb7e1)"><g><svg xmlns:x="http://ns.adobe.com/Extensibility/1.0/" xmlns:i="http://ns.adobe.com/AdobeIllustrator/10.0/" xmlns:graph="http://ns.adobe.com/Graphs/1.0/" xmlns="http://www.w3.org/2000/svg" xmlns:xlink="http://www.w3.org/1999/xlink" version="1.1" x="0" y="0" viewBox="6 6 52 52" enable-background="new 0 0 64 64" xml:space="preserve" width="60" height="60" filtersec="colorsb4717958648"><metadata><sfw xmlns="http://ns.adobe.com/SaveForWeb/1.0/"><slices></slices><slicesourcebounds y="-8160" x="-8165" width="16389" height="16384" bottomleftorigin="true"></slicesourcebounds><optimizationsettings><targetsettings targetsettingsid="0" fileformat="PNG24Format"><png24format transparency="true" filtered="false" interlaced="false" nomattecolor="false" mattecolor="#FFFFFF"></png24format></targetsettings></optimizationsettings></sfw></metadata><g><path d="M56,6H8C6.896,6,6,6.896,6,8v48c0,1.104,0.896,2,2,2h48c1.104,0,2-0.896,2-2V8C58,6.896,57.104,6,56,6z"></path></g></svg></g> <g><svg xmlns="http://www.w3.org/2000/svg" viewBox="0 0 45.840003967285156 44.47999954223633" width="35" height="35" x="12.5" y="12.5"><title>资源 7</title><g id="图层_2" data-name="图层 2"><g id="Layer_1" data-name="Layer 1"><polygon points="18.73 16.64 24.96 4.56 24.96 4.56 24.96 4.56 26.96 7.72 29.96 8.19 24.78 0 24.78 0 24.78 0 17.93 1.43 8.9 18.34 18.73 16.64" fill="#ff525a"></polygon><polygon points="28.14 17.81 41.55 20 39.16 22.88 39.64 25.88 45.84 18.42 42.36 12.35 23.48 8.99 28.14 17.81" fill="#f90"></polygon><polygon points="29.93 27.12 32 40.55 32 40.55 32 40.55 28.52 39.17 25.82 40.55 34.82 44.14 39.52 38.95 36.89 19.96 29.93 27.12" fill="#9a88e6"></polygon><polygon points="21.63 31.71 9.5 37.81 9.49 37.81 9.49 37.81 9.74 34.08 7.59 31.94 6.96 41.61 6.96 41.61 6.96 41.61 13.34 44.48 30.59 36.11 21.63 31.71" fill="#65b888"></polygon><polygon points="14.71 25.22 5.15 15.57 5.15 15.57 5.15 15.57 8.77 14.64 10.15 11.94 0.75 14.33 0.76 14.34 0.75 14.33 0 21.29 13.29 35.1 14.71 25.22" fill="#54bdf7"></polygon></g></g></svg></g><mask id="af14e781-e8df-4306-ab86-aad536feb7e1"><g fill="white"><svg xmlns:x="http://ns.adobe.com/Extensibility/1.0/" xmlns:i="http://ns.adobe.com/AdobeIllustrator/10.0/" xmlns:graph="http://ns.adobe.com/Graphs/1.0/" xmlns="http://www.w3.org/2000/svg" xmlns:xlink="http://www.w3.org/1999/xlink" version="1.1" x="0" y="0" viewBox="6 6 52 52" enable-background="new 0 0 64 64" xml:space="preserve" width="60" height="60" filtersec="colorsb4717958648"><metadata><sfw xmlns="http://ns.adobe.com/SaveForWeb/1.0/"><slices></slices><slicesourcebounds y="-8160" x="-8165" width="16389" height="16384" bottomleftorigin="true"></slicesourcebounds><optimizationsettings><targetsettings targetsettingsid="0" fileformat="PNG24Format"><png24format transparency="true" filtered="false" interlaced="false" nomattecolor="false" mattecolor="#FFFFFF"></png24format></targetsettings></optimizationsettings></sfw></metadata><g><path d="M56,6H8C6.896,6,6,6.896,6,8v48c0,1.104,0.896,2,2,2h48c1.104,0,2-0.896,2-2V8C58,6.896,57.104,6,56,6z"></path></g></svg></g> <g fill="black"><svg xmlns="http://www.w3.org/2000/svg" viewBox="0 0 45.840003967285156 44.47999954223633" width="35" height="35" x="12.5" y="12.5"><title>资源 7</title><g id="图层_2" data-name="图层 2"><g id="Layer_1" data-name="Layer 1"><polygon points="18.73 16.64 24.96 4.56 24.96 4.56 24.96 4.56 26.96 7.72 29.96 8.19 24.78 0 24.78 0 24.78 0 17.93 1.43 8.9 18.34 18.73 16.64"></polygon><polygon points="28.14 17.81 41.55 20 39.16 22.88 39.64 25.88 45.84 18.42 42.36 12.35 23.48 8.99 28.14 17.81"></polygon><polygon points="29.93 27.12 32 40.55 32 40.55 32 40.55 28.52 39.17 25.82 40.55 34.82 44.14 39.52 38.95 36.89 19.96 29.93 27.12"></polygon><polygon points="21.63 31.71 9.5 37.81 9.49 37.81 9.49 37.81 9.74 34.08 7.59 31.94 6.96 41.61 6.96 41.61 6.96 41.61 13.34 44.48 30.59 36.11 21.63 31.71"></polygon><polygon points="14.71 25.22 5.15 15.57 5.15 15.57 5.15 15.57 8.77 14.64 10.15 11.94 0.75 14.33 0.76 14.34 0.75 14.33 0 21.29 13.29 35.1 14.71 25.22"></polygon></g></g></svg></g></mask></svg> <!----></g> <g transform="translate(67,1.6274566650390625)"><g class="tp-name iconsvg-namesvg" transform="translate(0,0)"><g><path d="M29.93-33.79L29.93-33.79Q35.86-34.94 40.61-31.99L40.61-31.99Q43.20-30.15 42.28-27.38L42.28-27.38Q41.04-24.21 36.83-25.58L36.83-25.58Q31.46-26.67 28.39-24.08L28.39-24.08Q16.96-14.85 14.72-9.27L14.72-9.27Q14.41-8.13 15.60-8.66L15.60-8.66Q17.18-9.54 18.81-11.25L18.81-11.25Q25.40-17.53 32.87-18.33L32.87-18.33Q36.47-18.68 39.90-15.69L39.90-15.69Q43.46-12.70 43.20-8.83L43.20-8.83Q42.71-6.42 40.65-3.60L40.65-3.60Q39.90-2.55 41.09-1.85L41.09-1.85Q44.69 0.88 42.67 4.13L42.67 4.13Q40.69 6.06 37.49 4.66L37.49 4.66Q33.62 3.60 29.79 4.17L29.79 4.17Q26.28 4.53 22.76 5.19L22.76 5.19Q19.34 5.89 15.78 4.88L15.78 4.88Q11.69 4.04 9.40-0.09L9.40-0.09Q7.47-3.52 8.92-7.82L8.92-7.82Q9.36-8.96 8.17-9.10L8.17-9.10Q4.35-9.54 2.99-12.26L2.99-12.26Q3.08-12.48 4.35-13.36L4.35-13.36Q6.90-15.25 12.44-20.30L12.44-20.30Q13.54-21.40 12.13-21.36L12.13-21.36Q9.89-21.23 8.00-21.93L8.00-21.93Q5.93-22.46 4.79-24.17L4.79-24.17Q4.17-25.14 5.54-26.06L5.54-26.06Q9.27-26.94 15.86-29.75L15.86-29.75Q23.51-32.83 29.93-33.79ZM32.83-13.18L32.83-13.18Q31.95-13.05 31.07-12.17L31.07-12.17Q27.16-7.82 23.60-6.06L23.60-6.06Q18.50-2.94 15.03-6.64L15.03-6.64Q14.33-7.73 14.15-6.15L14.15-6.15Q13.45-2.81 15.60-0.48L15.60-0.48Q16.66 0.57 18.63-0.44L18.63-0.44Q23.73-2.24 27.42-2.94L27.42-2.94Q28.04-3.08 29.18-3.87L29.18-3.87Q32.48-6.28 34.72-9.71L34.72-9.71Q35.51-10.68 35.51-11.47L35.51-11.47Q35.20-13.84 32.83-13.18ZM53.57-33.62L53.57-33.62Q58.23-33.35 59.41-27.95L59.41-27.95Q59.63-26.89 60.03-26.19L60.03-26.19Q60.95-25.00 61.13-26.32L61.13-26.32Q61.39-28.04 65.70-30.94L65.70-30.94Q66.09-31.29 66.31-31.77L66.31-31.77Q66.36-32.61 66.97-33.22L66.97-33.22Q68.12-33.84 70.49-33.53L70.49-33.53Q71.94-33.22 73.56-32.04L73.56-32.04Q74.44-31.16 74.14-30.59L74.14-30.59Q74.05-29.93 75.28-31.07L75.28-31.07Q78.44-33.93 82.31-33.57L82.31-33.57Q85.03-32.78 86.75-29.31L86.75-29.31Q88.73-24.83 87.71-17.53L87.71-17.53Q87.28-14.33 84.07-13.71L84.07-13.71Q83.01-13.62 82.79-13.49L82.79-13.49Q82.79-13.27 84.07-12.26L84.07-12.26Q87.19-9.23 86.48-5.27L86.48-5.27Q86.35-2.46 86.35 0.35L86.35 0.35Q85.87 1.85 86.31 2.99L86.31 2.99Q86.40 3.87 86.18 4.75L86.18 4.75Q85.03 6.55 82.84 6.06L82.84 6.06Q80.77 5.41 79.28 5.32L79.28 5.32Q77.08 5.19 71.41 6.28L71.41 6.28Q67.54 6.86 64.38 4.79L64.38 4.79Q63.59 4.44 62.84 3.25L62.84 3.25Q61.39-0.26 62.45-6.42L62.45-6.42Q62.67-8.83 61.83-10.15Q61.00-11.47 62.14-12.08L62.14-12.08Q63.59-12.92 65.43-11.47L65.43-11.47Q66.31-10.46 67.32-10.90L67.32-10.90Q68.47-11.56 69.61-12.08L69.61-12.08Q70.71-12.61 70.49-13.01L70.49-13.01Q70.40-13.40 70.71-14.50L70.71-14.50Q70.84-15.60 69.57-14.41L69.57-14.41Q67.90-12.96 66.45-12.88L66.45-12.88Q65.00-12.92 63.41-14.33L63.41-14.33Q61.26-16.26 61.61-18.85L61.61-18.85Q61.70-19.73 61.96-20.61L61.96-20.61Q63.46-23.07 61.83-24.26L61.83-24.26Q61.08-24.92 61.08-23.77L61.08-23.77Q61.00-21.49 59.33-18.85L59.33-18.85Q59.02-17.80 59.81-17.09L59.81-17.09Q62.80-14.41 60.03-9.93L60.03-9.93Q58.45-8.48 58.80-6.64L58.80-6.64Q59.02-1.85 59.06 3.08L59.06 3.08Q58.67 7.65 54.76 6.42L54.76 6.42Q52.34 5.41 52.21 2.64L52.21 2.64Q52.16 1.54 52.29 0.44L52.29 0.44Q52.51-0.53 52.38-1.32L52.38-1.32Q52.16-2.24 51.24-2.07L51.24-2.07Q49.04-2.02 47.90-4.92L47.90-4.92Q47.42-6.11 47.68-7.25L47.68-7.25Q49.83-9.54 51.81-12.00L51.81-12.00Q53.48-13.49 51.33-14.24L51.33-14.24Q48.60-15.82 48.21-18.11L48.21-18.11Q47.94-19.29 49.13-19.56L49.13-19.56Q50.49-20.00 52.60-22.15L52.60-22.15Q54.10-23.51 53.66-26.94L53.66-26.94Q53.39-27.86 51.90-28.96L51.90-28.96Q50.14-30.94 51.72-32.92L51.72-32.92Q52.12-33.35 53.57-33.62ZM82.40-27.73L82.40-27.73Q82.44-29.79 80.73-28.34L80.73-28.34Q79.85-27.55 80.07-26.10L80.07-26.10Q79.63-23.25 79.32-20.26L79.32-20.26Q79.10-19.07 79.32-18.94L79.32-18.94Q80.38-18.33 80.77-19.07L80.77-19.07Q81.52-19.86 81.91-22.41L81.91-22.41Q82.49-25.09 82.40-27.73ZM70.44-28.21L70.44-28.21L69.57-27.86Q67.90-27.33 66.23-26.67L66.23-26.67Q65.43-25.88 66.58-24.74L66.58-24.74Q67.72-22.72 66.23-20.35L66.23-20.35Q64.64-18.37 65.74-17.58L65.74-17.58Q66.27-17.49 67.02-18.41L67.02-18.41Q67.94-19.42 69.04-20.08L69.04-20.08Q70.09-20.57 69.79-21.88L69.79-21.88L69.21-23.69Q68.91-24.17 69.35-24.83L69.35-24.83Q70.97-26.37 73.30-23.51L73.30-23.51Q74.22-22.28 74.49-23.60L74.49-23.60L74.79-25.18Q74.79-26.28 73.43-26.85L73.43-26.85Q72.42-27.55 72.16-28.21L72.16-28.21Q71.89-28.83 70.44-28.21ZM79.67-15.78L79.67-15.78Q78.57-16.88 77.83-15.64L77.83-15.64Q77.12-14.24 78.53-14.33L78.53-14.33Q79.06-14.33 79.58-14.19L79.58-14.19Q80.64-14.06 80.86-14.24L80.86-14.24Q80.86-14.46 79.67-15.78ZM78.53-10.24L78.53-10.24Q76.11-10.20 76.86-8.35L76.86-8.35Q76.86-7.03 78.27-7.21L78.27-7.21Q79.67-7.03 79.76-8.39L79.76-8.39Q80.02-9.93 78.53-10.24ZM70.05-5.93L70.05-5.93Q70.09-6.90 68.82-6.90Q67.54-6.90 67.54-5.45Q67.54-4.00 68.95-4.70L68.95-4.70Q69.13-4.70 69.30-4.83L69.30-4.83Q70.05-5.01 70.05-5.93ZM79.54-1.80L79.54-2.33Q79.54-3.43 78.31-3.34L78.31-3.34Q77.04-3.21 77.04-2.07L77.04-2.07L77.04-1.23Q77.04-0.18 78.35-0.40L78.35-0.40Q79.58-0.44 79.54-1.80L79.54-1.80ZM70.14 0.22L70.14-0.13Q70.14-1.27 68.82-1.23L68.82-1.23Q67.41-1.27 67.41-0.18L67.41-0.18Q67.10 2.55 69.08 2.15L69.08 2.15Q70.22 1.71 70.14 0.22L70.14 0.22ZM102.70-23.95L102.70-23.95Q105.95-24.48 108.33-23.73L108.33-23.73Q109.34-23.42 110.08-23.95L110.08-23.95Q111.88-24.65 113.86-22.85L113.86-22.85Q116.94-20.17 117.42-17.62L117.42-17.62Q117.55-14.81 114.70-14.28L114.70-14.28Q113.73-14.24 112.06-15.60L112.06-15.60Q109.38-18.19 105.86-18.11L105.86-18.11Q103.97-17.97 102.66-15.73L102.66-15.73Q101.21-12.74 101.69-9.01L101.69-9.01Q101.91-6.90 102.70-5.49L102.70-5.49Q103.80-3.43 105.78-3.25L105.78-3.25Q109.25-2.90 110.13-6.72L110.13-6.72Q110.39-10.94 114.70-9.18L114.70-9.18Q116.63-8.57 117.55-6.33L117.55-6.33Q118.52-2.90 114.21 0.57L114.21 0.57Q108.50 4.39 102.44 2.81L102.44 2.81Q96.72 1.49 93.82-5.27L93.82-5.27Q92.50-8.70 92.94-12.66L92.94-12.66Q93.25-14.68 93.74-16.17L93.74-16.17Q96.55-22.54 102.70-23.95ZM131.35-23.95L131.35-23.95Q134.60-24.48 136.98-23.73L136.98-23.73Q137.99-23.42 138.74-23.95L138.74-23.95Q140.54-24.65 142.51-22.85L142.51-22.85Q145.59-20.17 146.07-17.62L146.07-17.62Q146.21-14.81 143.35-14.28L143.35-14.28Q142.38-14.24 140.71-15.60L140.71-15.60Q138.03-18.19 134.52-18.11L134.52-18.11Q132.63-17.97 131.31-15.73L131.31-15.73Q129.86-12.74 130.34-9.01L130.34-9.01Q130.56-6.90 131.35-5.49L131.35-5.49Q132.45-3.43 134.43-3.25L134.43-3.25Q137.90-2.90 138.78-6.72L138.78-6.72Q139.04-10.94 143.35-9.18L143.35-9.18Q145.28-8.57 146.21-6.33L146.21-6.33Q147.17-2.90 142.87 0.57L142.87 0.57Q137.15 4.39 131.09 2.81L131.09 2.81Q125.38 1.49 122.48-5.27L122.48-5.27Q121.16-8.70 121.60-12.66L121.60-12.66Q121.90-14.68 122.39-16.17L122.39-16.17Q125.20-22.54 131.35-23.95Z" transform="translate(-2.98828125, 34.113375756048)"></path></g> <!----> <!----> <!----> <!----> <!----> <!----> <!----></g> <g class="tp-slogan iconsvg-slogansvg" fill="#ff525a" transform="translate(0,47.79340362548828)"><!----> <rect x="0" height="1" y="3.9750003814697266" width="41.32177543640137"></rect> <rect height="1" y="3.9750003814697266" width="41.32177543640137" x="102.07342720031738"></rect> <g transform="translate(44.32177543640137,0)"><path d="M7.17-6.09L7.17-6.09L6.09-6.09Q6-7.73 3.94-7.83L3.94-7.83Q2.02-7.78 2.02-6.33L2.02-6.33Q2.02-5.39 3.05-5.25L3.05-5.25L5.48-4.69Q7.41-4.22 7.41-2.34L7.41-2.34Q7.36 0.05 4.03 0.14L4.03 0.14Q2.20 0.14 1.45-0.61L1.45-0.61Q0.52-1.31 0.56-2.77L0.56-2.77L1.69-2.77Q1.73-0.80 4.03-0.75L4.03-0.75Q6.28-0.80 6.33-2.20L6.33-2.20Q6.52-3.38 4.45-3.75L4.45-3.75L2.67-4.13Q0.84-4.64 0.84-6.19L0.84-6.19Q0.98-8.72 3.84-8.81L3.84-8.81Q7.08-8.81 7.17-6.09ZM10.03-5.06L14.53-5.06L14.53-8.58L15.70-8.58L15.70 0L14.53 0L14.53-3.98L10.03-3.98L10.03 0L8.86 0L8.86-8.58L10.03-8.58L10.03-5.06ZM17.67-8.58L18.84-8.58L18.84 0L17.67 0L17.67-8.58ZM20.81-8.58L21.98-8.58L21.98-1.03L26.34-1.03L26.34 0L20.81 0L20.81-8.58ZM27.66-8.58L28.83-8.58L28.83 0L27.66 0L27.66-8.58ZM36.47-3.19L36.47-8.58L37.64-8.58L37.64-3.05Q37.50 0.05 34.13 0.14L34.13 0.14Q30.98 0.05 30.84-2.86L30.84-2.86L30.84-8.58L32.02-8.58L32.02-3.19Q32.06-0.84 34.17-0.80L34.17-0.80Q36.47-0.84 36.47-3.19L36.47-3.19ZM46.59-6.05L46.59-6.05L45.47-6.05Q45.05-7.78 43.08-7.83L43.08-7.83Q40.36-7.69 40.27-4.36L40.27-4.36Q40.27-0.80 43.13-0.80L43.13-0.80Q45.09-0.84 45.56-3.19L45.56-3.19L46.69-3.19Q46.17 0.05 42.89 0.14L42.89 0.14Q39.14 0 39.05-4.31L39.05-4.31Q39.23-8.63 43.08-8.81L43.08-8.81Q46.13-8.72 46.59-6.05ZM55.22-6.05L55.22-6.05L54.09-6.05Q53.67-7.78 51.70-7.83L51.70-7.83Q48.98-7.69 48.89-4.36L48.89-4.36Q48.89-0.80 51.75-0.80L51.75-0.80Q53.72-0.84 54.19-3.19L54.19-3.19L55.31-3.19Q54.80 0.05 51.52 0.14L51.52 0.14Q47.77 0 47.67-4.31L47.67-4.31Q47.86-8.63 51.70-8.81L51.70-8.81Q54.75-8.72 55.22-6.05Z" transform="translate(-0.56026785714286, 8.8125)"></path></g></g></g></g></svg>